<svg version="1.0" xmlns="http://www.w3.org/2000/svg" width="346.667" height="346.667" viewBox="0 0 260 260"><path d="M153 51.9c-2.1 4 2 7.7 5.8 5.2.8-.5 1.2-2.1 1-3.7-.2-2.3-.9-3-3-3.2-1.9-.2-3 .3-3.8 1.7zm32.5 13.6c-2.2.8-4.7 2.3-5.7 3.5-2.2 2.7-2.8 2.5-2.8-1 0-2.5-.4-3-2.5-3H172v38h5.8l.4-13.5.3-13.5 3.1-3.1c4.2-4.2 9.3-4.4 13.2-.6 2.6 2.7 2.7 3 3 16.7l.4 14h5.8V89c0-12-.3-14.7-1.9-17.9-2.9-5.6-9.9-8-16.6-5.6zM153 84v19h6V65h-6v19zm-37.8 40.2c-5 19.4-9.6 38-10.3 41.3-1.5 7.2-2.8 10.2-2.9 6.5-.1-3.6-3.8-20.7-11.5-53.3L83.6 90H69.3l-9.1 34.7c-5 19.2-9.9 38.2-10.8 42.3l-1.7 7.4-5.2-23.4c-3-12.9-7.3-31.8-9.7-42l-4.4-18.5-7.1-.3-7.2-.3 4.5 17.2c2.4 9.5 7.8 30.6 11.9 46.8 4.1 16.3 8 31.3 8.6 33.4l1 3.8 6.7-.7c3.7-.3 6.8-.7 7-.9.5-.4 17.4-63.1 19.7-72.9 1.3-5.5 2.5-9.4 2.7-8.6.3.8 1.5 6.4 2.6 12.5 1.2 6 5.3 24.2 9.3 40.3l7.1 29.3 7.2-.3 7.1-.3 14.2-50C131.5 112 138 89.4 138 89.2c0-.1-3.1-.2-6.8-.2h-6.9l-9.1 35.2zM196 155v35h3.4c3.5 0 4.6-1.3 4.6-5.2 0-1.8.3-1.6 2.9 1.1 3.7 3.9 6.9 5.1 14 5.1 11.4 0 19.5-8.7 20.8-22.4.7-7.6-1.5-16-5.4-20.7-7.2-8.5-20.3-9-28.5-1.2l-2.8 2.7V120h-9v35zm29.8-5c5 3.1 7.5 9.6 7 18.1-.6 10.2-5.8 16.2-14.2 16.2-5.2 0-8.9-2.1-11.6-6.6-2.7-4.3-2.8-16.6-.2-21.7 3.6-7.3 12.3-10 19-6zm-67.6-7.9c-5.2 1.5-11.8 8.8-13.6 15-4.2 14 .3 27.2 10.8 32 4.7 2.1 16.7 2.6 22.9.8 3.3-.9 3.8-1.4 3.5-3.7-.3-2.9-.1-2.9-10.4-1.6-5.5.7-11.6-.7-14.8-3.5-2.2-1.8-5.5-8.7-5.6-11.4 0-1.5 1.5-1.7 17-1.7h17v-5.8c-.1-15.2-12.2-24.3-26.8-20.1zm14 7.6c2.4 2.1 4.8 7.3 4.8 10.3 0 1.9-.6 2-13.1 2h-13l.7-2.3c.4-1.2 1-3.1 1.4-4.2.9-2.2 5.7-6.9 8-7.8 2.6-1.1 9.1.1 11.2 2z"/></svg>